<?xml version="1.0" encoding="utf-8"?>
<!-- Generator: Adobe Illustrator 24.3.0, SVG Export Plug-In . SVG Version: 6.00 Build 0)  -->
<svg version="1.1"
	 id="svg1" xmlns:inkscape="http://www.inkscape.org/namespaces/inkscape" xmlns:sodipodi="http://sodipodi.sourceforge.net/DTD/sodipodi-0.dtd" xmlns:svg="http://www.w3.org/2000/svg"
	 xmlns="http://www.w3.org/2000/svg" xmlns:xlink="http://www.w3.org/1999/xlink" x="0px" y="0px" viewBox="0 0 1032 817"
	 style="enable-background:new 0 0 1032 817;" xml:space="preserve">
<style type="text/css">
	.st0{fill:#FFFFFF;}
	.st1{fill:#2B2B2B;fill-opacity:0.77;stroke:#D2B48C;stroke-width:12;stroke-miterlimit:10;}
	.st2{fill:#0E00AE;}
	.st3{fill:#00619F;}
	.st4{fill:#1A36AD;}
	.st5{font-family:'TimesNewRomanPS-BoldMT';}
	.st6{font-size:18.7437px;}
	.st7{fill:#8B0000;}
	.st8{fill:#FF6666;}
	.st9{display:none;fill:#4DC4B8;fill-opacity:0.77;}
	.st10{fill:none;}
</style>
<path id="rect39_1_" class="st0" d="M837.9,443.5h156c6.3,0,11.4,4.5,11.4,10.1v8.2c0,5.6-5.1,10.1-11.4,10.1h-156
	c-6.3,0-11.4-4.5-11.4-10.1v-8.2C826.5,448.1,831.6,443.5,837.9,443.5z"/>
<sodipodi:namedview  bordercolor="#000000" borderopacity="0.25" id="namedview1" inkscape:current-layer="g1" inkscape:cx="533.64992" inkscape:cy="348.89762" inkscape:deskcolor="#d1d1d1" inkscape:pagecheckerboard="0" inkscape:pageopacity="0.0" inkscape:showpageshadow="2" inkscape:window-height="1009" inkscape:window-maximized="1" inkscape:window-width="1920" inkscape:window-x="-8" inkscape:window-y="-8" inkscape:zoom="0.70364481" pagecolor="#ffffff" showgrid="false">
	</sodipodi:namedview>
<g id="g1" inkscape:groupmode="layer" inkscape:label="Image">
	<path id="path1" inkscape:export-filename="path1.svg" inkscape:export-xdpi="300" inkscape:export-ydpi="300" class="st1" d="
		M142.8,404.7l205-46.2l8.5-16l-27.7-9.2l5-144.2l-7.8-1.4l-8.5-11.4l-23.1,3.2l-9.9,9.6l-5-24.5l14.9-41.9l-8.5-8.5l54-11l4.6-13.9
		l-1.8-20.6l20.3-23.8l8.2,8.9l46.2,5.3l22.4-23.1l13.5,2.1l22.7-3.9l18.1-14.6l19.9-1.4l17.1-11.7l27,41.2l-7.8,6.8l-1.8,19.2
		l16,8.2l11-3.9l16.3,9.9L606.8,70l8.2,7.1l8.2-2.1l2.1-12.4L643,75l-5.3,20.6l10.3,8.9l1.4,12.1l18.8,3.2l25.6,43.3l41.9-15.3
		l1.1,9.9l-11.7,14.9l5.3,19.2l11.7,6l7.1,12.4h15.6l56.5,34.8l70.7-22l84.9-3.2l0.4,10.3l6.8,2.1v-5.7l5.3,3.6l8.2-11l5,3.2
		l10.7-6.4l2.1-9.2l8.2-3.9l-13.1,19.9l2.1,9.2l-42.6,26.6h-11.4l-3.6,9.2l-3.9-4.6l0.7,6.4l-113,67.9l-15.6-1.4l-8.5-7.1l0.7,9.9
		l12.8,3.2l-44.1,26.6l2.8,3.6l-1.4,50.1l-6,5.7l-22.7,4.6v14.9l21.7,10.3l0.7,38.7l26.6,8.9l-1.1,11l8.5,14.6l5.7,1.4l-0.7-16.3
		l7.1-3.6h15.3l3.6,17.1l-30.6,6.8l13.9,58.6l-12.1-3.9l-0.7,8.5l6.4,9.6l-1.4,13.9l-5.3-1.1l1.4-13.5l-6.8-3.9l-1.1,5.7h-30.2
		l-1.4,5l-18.8-5l-1.4,5l-19.2,4.6l7.8,29.1l-29.1,7.1l20.6,87l-5.7,23.8l9.2,1.8l16,34.1l-17.4,1.1l5.7,11l-84.2-8.5l-136.8,6
		l5-15.6l6.4,2.1l-5.7-6.8l19.9-28.1l10.7-25.6l-8.9,1.4l-31.6-16.7l-48.3,6.8l-7.1-34.8l-19.5,2.5l-2.5,6.4l-8.2,3.2l-8.9-2.1
		l-6-5.7l9.9,0.7l-1.4-13.1l-7.5,4.6l-15.6-18.1v-9.2l-38.4,8.9l-2.1-9.6l-31.6,9.2l5.3,20.3l-30.6,4.3l17.8,70.3l-9.2,5.7
		l-103.4-14.6l2.1-4.3l-21.7-16.3l-10.3-0.7l10.7-19.5l-3.9-13.5l-26.6-4.6l-6.4-10.7l-13.5,2.1l-8.5-33h-17.8l-1.8-9.2l-48-37.3
		L82,588.7l-4.6-5.3l0.4-6.4l-6.8-0.4l-0.4,6l-21-92l-29.5,6l-11.7-60l37-10.7l14.9-28.4l24.2,13.9l1.8,1.4l18.8-18.8l2.8-16
		l13.9-12.4l14.9,14.6L142.8,404.7z"/>
	<path id="path2" class="st2" d="M516.6,720.5l6-18.5l3.2-16.7l-13.1-20.3l-1.1-16l3.2-6.4l-8.9-7.1l0.4-1.8l-3.2-11.4l5.3-21.3
		l-0.7-11.4l-1.4-6.8l3.6-7.5l-6.8-9.2l-1.4-19.2l-5.3-11l2.8-2.5l-0.4-17.1l6.8-1.8l3.6,1.4l-2.1,5.3l7.8,7.5l2.8,6.4l1.8,5.7
		l1.8,6.4l-1.1,6.8v8.5l2.1,5.3l1.4,10.3v19.9l2.5,2.5l-0.7,3.9l-1.1,7.1l-6,14.9l6,8.2l2.5,6.8l-1.8,3.2l-3.6,5l14.6,18.8h5.7
		l3.9-5.3l3.2-7.1l1.4-3.9l5-0.7l5.3,1.1l1.1-2.5v-2.5l5.3-4.3l-1.1-10.3l2.1-0.4l3.9-1.1l7.1-0.7l0.7-6.4l2.8-0.4l1.4,3.6l-0.4,3.2
		h1.8l5.3-5l2.5,0.7l3.9-3.2v-3.9l-1.4-3.6l1.4-6.8l-2.1-6l0.7-3.2v-5l-1.4-3.2l3.9,2.8h4.6l0.4,1.8l-3.6,1.4l-0.4,2.1l-0.4,4.6v4.3
		l0.7,3.9l-1.1,4.3v5l-1.1,3.9l-5.7,3.2l-5,2.5l-1.4,2.5l-7.5,5l-3.6,2.8l-2.1,0.7l1.1,9.6l-9.2,9.9l-9.2,2.5l-3.9-1.4l-2.8,7.5
		l-4.6,1.8l7.5,11l-8.9,11.7l4.6,9.9l-4.6,3.9l3.9,3.2l-1.1,6.8l2.8,1.4l1.8,4.6l-1.8,7.1l2.8,2.5l-5.3,1.1l-8.2-3.9l0.7-11
		l-2.1-2.1l-0.4-1.4l-9.2,0.4l-2.1-3.9l-1.4,3.6l-2.8,4.3L516.6,720.5z"/>
	<path id="path3" class="st3" d="M592.8,583.7l8.5-7.1l6.4-2.1l2.8-2.7l-0.5-6.8l-5-4.6l0.9-1.8l1.8-2.7v-3l-1.6-1.8l-4.8-6.9
		l2.5-4.8l-0.2-3l4.6-8.7l-0.5-5.2l-0.4-3.4l-1.8-4.4l-2.3-1.4l-4.3,1.4l-2.5,4.4l-0.9,5l0.4,3.6l1.1,1.8l1.2,4.4l1.2,2.3l-2.5,3.9
		l-2.3,3.6v4.1l1.1,3.2l2,1.8l1.4,1.8l0.7,5l3.7,2.3l1.8,2.7l2.3,3.6l-1.6,3l-3.2,2.7l-3.4,1.6l-0.7,2.1l-3.7,2.5l-2.3,2.7
		L592.8,583.7z"/>
	<path id="path4" class="st3" d="M614.8,494.4l2.5-2.1l2.7-1.2l1.8-2.8l1.1-3l2.1-2.8l1.2-3.4l0.7-2.7l1.6-2.3l-0.5-2l-3-0.7
		l-2.3,1.4v2.7l-4.1,2v1.8l-1.2,2l-0.5,1.8l-0.2,2.3v3.2l-2,2.5l-0.7,2L614.8,494.4z"/>
	<path id="path6" class="st3" d="M506,178.2l2.7-1.2l0.8-0.4l1.9-1.1h0.9l-0.2-0.8l2.1-0.4c0,0,0.6,0.6,0.9,0.7
		c0.3,0.1,1.3-1.4,1.3-1.4l-0.7-1c0,0,0.1-1.6-0.2-1.8s-2.1-0.8-2.1-0.8l-2-1.2l-1.4-0.1l-3.1,0.8c0,0-1.6,0.1-1.9,0.1
		s-1.4,1.7-1.4,1.7l-0.4,1.1v1.1l0.8,0.8l0.1,1.7l0.6,1.8L506,178.2z"/>
	<path id="path7" class="st3" d="M449.1,322.1l4.8-2.9l2.6-2.3v-4.8c0,0-1.3-3.3-1.8-3.6c-0.5-0.4-4.4-7.4-4.4-7.4l-1.9-5l-3.5-5.4
		L434.3,280l-1,0.4l-0.8-8.5l1.3-1.8l-3-1.3l-1.9-2.3l-4.3-2.3l-3.1-1.8l-3.3-0.4l0.4,3.9l1.1,3l-1.1,2l1.9,1.5l1.4,2.1l2,2.1
		l0.6,2.6l2.4,1.3l2,2.6c0,0-1.3,2.4-0.4,2.9c0.9,0.5,4.1,0.6,4.1,1.6s0.4,3.9,0.4,3.9l0.6,5.8l2.9,2.8l4.1,4.3l2.1,4.8l2.5,4.5
		l1.6,3.6l1.1,3.5l1.1,2L449.1,322.1z"/>
	<path id="path8" class="st3" d="M391.9,228.1l-0.1-4.8v-4l-1-0.5l-0.1-1.7l-0.2-1.9l-2.2-2.2l-0.9-1.8l-4.2-0.3l-2,1
		c0,0,0.5,0.6,0.8,0.8c0.3,0.1,1.4,0.3,1.8,0.7s1,1.2,1,1.2l2,0.5l1.3,1.4l1.5,1.6c0,0-0.1,0.9,0,1.1c0.1,0.3,1.6,2.1,1.2,3
		c-0.4,0.9-1.6,1.6-1.6,1.6s-0.3,0.9-0.1,1.7s1,2.3,1,2.3L391.9,228.1z"/>
	<path id="path9" class="st3" d="M398.5,214l0.8,2.8l1.4-0.3c0,0,1.4-1.3,1.6-1.3s2.7-0.4,2.7-0.4l2.5-1l0.6-1.8c0,0,1.3,0,0.6-0.6
		c-0.7-0.6-2.8-0.5-3.2-0.4c-0.4,0.1-3.6,0.3-3.6,0.3s-1-1.3-1.9-0.3s-3.1,1.5-2.4,2.2C398.3,214,398.5,214,398.5,214z"/>
	<path id="path10" class="st3" d="M367.3,197.7l-0.4,4.2c0,0,0.2,1.6,0.3,1.7s1.3,0.1,1.3,0.4s1.3,1.6,1.5,1.8
		c0.2,0.1,1.8,0.9,1.8,0.9l2.6-0.2l0.8,1.1l3-0.2c0,0-1.2-1.1-1.4-1.2c-0.2,0-2.4-1.4-2.4-1.4s-3.2-1.9-3.2-2.3s-0.2-1.7-0.2-1.7
		l-1.4-1.9l-1.1-1L367.3,197.7z"/>
	<path id="path11" class="st4" d="M632.1,250l1.8,2.6l1.9,0.2h2.2l1.1,0.3l1-2c0,0,0.8-2.1,1.2-2.1s1.6-1.1,1.6-1.1s-1-1.5-1.5-1.5
		s-2.4-0.6-2.8-1.1s-0.4-1.3-0.4-1.3s-1.2-0.8-2.4-0.3c-1.2,0.6-1.7,0.8-2.2,1.6s-2,2.2-1.9,2.4S632.1,250,632.1,250L632.1,250z"/>
	<path id="path12" class="st4" d="M791.3,237.8l-2.4,7.6c0,0-1.4,2.7-1,3.9c0.4,1.2,2,4,2.4,4.4c0.4,0.4,4.3,2.1,4.3,2.1
		s3.6,1.4,4,1.4c0.4,0,5.1-4.6,5.1-4.6L801,247c0,0-1.7-2.7-2.6-3.6c-0.9-0.9-2.8-4.6-2.8-4.6L791.3,237.8z"/>
	<path id="path13" class="st4" d="M808.2,282.5l-1.9,5.2l0.2,3.3l1.2,2.9l1,1.2l0.3,2.5l-0.1,3.2l1.8,2.7l2.5-0.5l-0.7-3.6
		c0,0-0.1-2-0.6-2.5s-1.9-1.8-1.9-1.8l0.6-1.6l0.9-1.3l0.6-1.7l-0.8-2.3c0,0-0.5-0.7-0.9-1.4C810.1,286.1,808.2,282.5,808.2,282.5
		L808.2,282.5z"/>
	<path id="path14" class="st4" d="M526.8,61.9c-0.6,4.7-0.7,4-0.5,5.1c0.2,1.1,0.2,3.9,0.2,4.6s-1,3.8,0.6,2.9s4.1-3.6,4.9-4
		s1.6-1.1,2.8-2.5s3.3-1.8,4.9-3.3c1.6-1.5,2.6-1,2.5-2.8c-0.1-1.8-0.6-2.6-1.4-3c-0.8-0.4-4.3-4.4-5.7-1.9s-3.6,4-3.9,4
		C531.1,61,526.8,61.9,526.8,61.9z"/>
	<path id="path15" class="st4" d="M691.8,781.1l-3.8,3.1l-1.2,2.3c0,0-1.7,1.2-1,2s0.8,1.2,1.4,2.1s0.1,1.9,1.2,0.6s2.3-2.5,2.4-2.8
		s-0.4-0.4,1.1-0.6s1.5-0.4,2.6-0.9s2.7-1,3-1.4c0.3-0.4,0.9-1,1.3-1.6s1.3-1.6,1.3-2.3c0-0.7-0.2-2.4-0.4-3.2s-0.6-2.4-0.8-3
		c-0.2-0.7-1.9-0.5-1.9-0.5s-0.8,1.8-0.8,2.1c0,0.3-0.4,1.5-0.4,1.8c-0.1,0.3,0,1-0.5,1.1C694.9,780,691.8,781.1,691.8,781.1
		L691.8,781.1z"/>
	<g id="g36" transform="matrix(1.2943982,0,0,1.2384448,779.09717,-366.0866)">
		<path id="rect35" class="st0" d="M-241.8,459.9h136.3c5.5,0,9.9,3.7,9.9,8.2v6.6c0,4.5-4.5,8.2-9.9,8.2h-136.3
			c-5.5,0-9.9-3.7-9.9-8.2v-6.6C-251.7,463.6-247.3,459.9-241.8,459.9z"/>
		<text transform="matrix(0.8075 0 0 0.8075 -247.6021 475.5031)" class="st5 st6">агрогородок Поречье</text>
	</g>
	<g id="g40" transform="matrix(1.2943982,0,0,1.2384448,1069.4452,-118.86323)">
		<path id="rect39" class="st0" d="M-420.2,471.9h104c4.2,0,7.6,3.7,7.6,8.2v6.6c0,4.5-3.4,8.2-7.6,8.2h-104c-4.2,0-7.6-3.7-7.6-8.2
			v-6.6C-427.8,475.6-424.4,471.9-420.2,471.9z"/>
		<text transform="matrix(0.8075 0 0 0.8075 -420.8798 486.7903)" class="st5 st6">деревня Бабино</text>
	</g>
	<g id="g51" transform="matrix(1.2943982,0,0,1.2384448,826.76317,-379.7019)">
		<g id="g50">
			<g id="g49">
				<g id="g48" transform="matrix(-1,0,0,1,-571.02588,0)">
					<ellipse id="circle47" class="st7" cx="-284.6" cy="396" rx="3.2" ry="3.1"/>
					<ellipse id="circle48" class="st7" cx="-285.5" cy="359" rx="31.3" ry="29.9"/>
					
						<path id="path48" inkscape:flatsided="false" inkscape:randomized="0" inkscape:rounded="0.2" inkscape:transform-center-x="3e-06" inkscape:transform-center-y="1.3148334" sodipodi:arg1="1.5707963" sodipodi:arg2="2.6179939" sodipodi:cx="-258.03146" sodipodi:cy="383.00574" sodipodi:r1="5.2593551" sodipodi:r2="2.6296773" sodipodi:sides="3" sodipodi:type="star" class="st7" d="
						M-284.9,388.9c-0.9,0-1.8-3.2-2.3-3.9s-2.7-3.2-2.3-3.9s3.6,0,4.6,0s4.1-0.8,4.6,0s-1.8,3.2-2.3,3.9
						C-283.1,385.7-284,388.9-284.9,388.9z"/>
				</g>
				<ellipse id="ellipse48" class="st0" cx="-285.9" cy="354.6" rx="7.5" ry="7.2"/>
				<path id="rect48" class="st0" d="M-285.8,362.4L-285.8,362.4c-1,0-1.8,0.9-1.8,2v5.4c0,1.1,0.8,2,1.8,2l0,0c1,0,1.8-0.9,1.8-2
					v-5.4C-284,363.3-284.8,362.4-285.8,362.4z"/>
			</g>
			<ellipse id="circle49" class="st8" cx="-287.8" cy="352.3" rx="2.2" ry="2.1"/>
		</g>
		<path id="rect50" class="st0" d="M-246.7,348.4h112.1c4.5,0,8.2,3.7,8.2,8.2v6.6c0,4.5-3.7,8.2-8.2,8.2h-112.1
			c-4.5,0-8.2-3.7-8.2-8.2v-6.6C-254.9,352-251.3,348.4-246.7,348.4z"/>
		<text transform="matrix(0.8075 0 0 0.8075 -247.6021 363.941)" class="st5 st6">деревня Запурье</text>
	</g>
	<path id="path51" class="st9" d="M378,180.5l11.4,91l264.3-29.8l1.4-52.6L378,180.5z"/>
	<path id="path52" class="st9" d="M426.4,32.7l-4.3,72.5l39.8,17.1l19.9-25.6l25.6-4.3h149.2l11.4-54l-172,2.8L426.4,32.7z"/>
	<path id="path53" class="st9" d="M677.9,447.7l-8.5,46.9l19.9,15.6l8.5,15.6l22.7,2.8l1.4-22.7l28.4-11.4l159.2,4.3l7.1-32.7
		l-64-2.8H749l-39.8-27L677.9,447.7z"/>
	<g id="g36_1_" transform="matrix(1.2943982,0,0,1.2384448,779.09717,-366.0866)">
		<path id="rect35_1_" class="st0" d="M-329.7,626.4h114.4c4.6,0,8.4,3.7,8.4,8.2v6.6c0,4.5-3.7,8.2-8.4,8.2h-114.4
			c-4.6,0-8.4-3.7-8.4-8.2v-6.6C-338,630-334.3,626.4-329.7,626.4z"/>
		<text transform="matrix(0.8075 0 0 0.8075 -332.9925 640.371)" class="st5 st6">деревня Рыбница</text>
	</g>
</g>
<ellipse id="circle47_1_" class="st7" cx="414.1" cy="261.3" rx="3.2" ry="3.1"/>
<ellipse id="circle48_1_" class="st7" cx="415.3" cy="215.4" rx="31.3" ry="29.9"/>
<path id="path48_1_" inkscape:flatsided="false" inkscape:randomized="0" inkscape:rounded="0.2" inkscape:transform-center-x="3e-06" inkscape:transform-center-y="1.3148334" sodipodi:arg1="1.5707963" sodipodi:arg2="2.6179939" sodipodi:cx="-258.03146" sodipodi:cy="383.00574" sodipodi:r1="5.2593551" sodipodi:r2="2.6296773" sodipodi:sides="3" sodipodi:type="star" class="st7" d="
	M414.6,252.5c1.2,0,2.4-3.9,2.9-4.9c0.6-1,3.5-3.9,2.9-4.9c-0.6-1-4.7,0-5.9,0c-1.2,0-5.3-1-5.9,0c-0.6,1,2.4,3.9,2.9,4.9
	C412.2,248.6,413.4,252.5,414.6,252.5z"/>
<ellipse id="ellipse48_1_" class="st0" cx="414.8" cy="210" rx="9.7" ry="8.9"/>
<path id="rect48_1_" class="st0" d="M415,219.7L415,219.7c-1.3,0-2.3,1.1-2.3,2.5v6.7c0,1.4,1,2.5,2.3,2.5l0,0
	c1.3,0,2.3-1.1,2.3-2.5v-6.7C417.3,220.8,416.2,219.7,415,219.7z"/>
<ellipse id="circle49_1_" class="st8" cx="412.4" cy="207.2" rx="2.2" ry="2.1"/>
<ellipse id="circle47_2_" class="st7" cx="304.7" cy="469.3" rx="3.2" ry="3.1"/>
<ellipse id="circle48_2_" class="st7" cx="305.6" cy="423.8" rx="31.3" ry="29.9"/>
<path id="path48_2_" inkscape:flatsided="false" inkscape:randomized="0" inkscape:rounded="0.2" inkscape:transform-center-x="3e-06" inkscape:transform-center-y="1.3148334" sodipodi:arg1="1.5707963" sodipodi:arg2="2.6179939" sodipodi:cx="-258.03146" sodipodi:cy="383.00574" sodipodi:r1="5.2593551" sodipodi:r2="2.6296773" sodipodi:sides="3" sodipodi:type="star" class="st7" d="
	M305.2,460.5c1.2,0,2.4-3.9,2.9-4.9s3.5-3.9,2.9-4.9s-4.7,0-5.9,0c-1.2,0-5.3-1-5.9,0s2.4,3.9,2.9,4.9
	C302.8,456.6,304,460.5,305.2,460.5z"/>
<ellipse id="ellipse48_2_" class="st0" cx="305.5" cy="418" rx="9.7" ry="8.9"/>
<path id="rect48_2_" class="st0" d="M305.6,427.7L305.6,427.7c-1.3,0-2.3,1.1-2.3,2.5v6.7c0,1.4,1,2.5,2.3,2.5l0,0
	c1.3,0,2.3-1.1,2.3-2.5v-6.7C307.9,428.8,306.9,427.7,305.6,427.7z"/>
<ellipse id="circle49_2_" class="st8" cx="303" cy="415.2" rx="2.2" ry="2.1"/>
<ellipse id="circle47_3_" class="st7" cx="709.2" cy="525.6" rx="3.2" ry="3.1"/>
<ellipse id="circle48_3_" class="st7" cx="710.4" cy="479.8" rx="31.3" ry="29.9"/>
<path id="path48_3_" inkscape:flatsided="false" inkscape:randomized="0" inkscape:rounded="0.2" inkscape:transform-center-x="3e-06" inkscape:transform-center-y="1.3148334" sodipodi:arg1="1.5707963" sodipodi:arg2="2.6179939" sodipodi:cx="-258.03146" sodipodi:cy="383.00574" sodipodi:r1="5.2593551" sodipodi:r2="2.6296773" sodipodi:sides="3" sodipodi:type="star" class="st7" d="
	M709.6,516.8c1.2,0,2.4-3.9,2.9-4.9c0.6-1,3.5-3.9,2.9-4.9c-0.6-1-4.7,0-5.9,0s-5.3-1-5.9,0s2.4,3.9,2.9,4.9
	C707.3,512.9,708.4,516.8,709.6,516.8z"/>
<ellipse id="ellipse48_3_" class="st0" cx="709.9" cy="474.4" rx="9.7" ry="8.9"/>
<path id="rect48_3_" class="st0" d="M710,484L710,484c-1.3,0-2.3,1.1-2.3,2.5v6.7c0,1.4,1,2.5,2.3,2.5l0,0c1.3,0,2.3-1.1,2.3-2.5
	v-6.7C712.3,485.1,711.3,484,710,484z"/>
<ellipse id="circle49_3_" class="st8" cx="707.5" cy="471.5" rx="2.2" ry="2.1"/>
<ellipse id="circle47_4_" class="st7" cx="788.8" cy="513.8" rx="3.2" ry="3.1"/>
<ellipse id="circle48_4_" class="st7" cx="790" cy="468" rx="31.3" ry="29.9"/>
<path id="path48_4_" inkscape:flatsided="false" inkscape:randomized="0" inkscape:rounded="0.2" inkscape:transform-center-x="3e-06" inkscape:transform-center-y="1.3148334" sodipodi:arg1="1.5707963" sodipodi:arg2="2.6179939" sodipodi:cx="-258.03146" sodipodi:cy="383.00574" sodipodi:r1="5.2593551" sodipodi:r2="2.6296773" sodipodi:sides="3" sodipodi:type="star" class="st7" d="
	M789.3,505.1c1.2,0,2.4-3.9,2.9-4.9c0.6-1,3.5-3.9,2.9-4.9c-0.6-1-4.7,0-5.9,0s-5.3-1-5.9,0c-0.6,1,2.4,3.9,2.9,4.9
	C786.9,501.2,788.1,505.1,789.3,505.1z"/>
<ellipse id="ellipse48_4_" class="st0" cx="789.5" cy="462.6" rx="9.7" ry="8.9"/>
<path id="rect48_4_" class="st0" d="M789.7,472.3L789.7,472.3c-1.3,0-2.3,1.1-2.3,2.5v6.7c0,1.4,1,2.5,2.3,2.5l0,0
	c1.3,0,2.3-1.1,2.3-2.5v-6.7C792,473.4,790.9,472.3,789.7,472.3z"/>
<ellipse id="circle49_4_" class="st8" cx="787.1" cy="459.8" rx="2.2" ry="2.1"/>
<text transform="matrix(1.0452 0 0 1 830.3564 462.6245)" class="st5 st6">деревня Придолгое</text>
<polyline class="st10" points="839,515 839,514.1 849.3,514.1 "/>
</svg>
